:FULLY-SPECIFIED
:FORCE-ALL-JOINTS-BE-3DOF
:DEGREES
713
root 4.85022 19.0302 8.47472 -170.565 -83.6097 -170.69
lfemur -46.7255 3.58075 24.6243
ltibia -148.932 0 0
lfoot 8.7457 -3.48172 1.44189
ltoes 31.2692 -0 0
rfemur -5.63068 -1.63947 3.03768
rtibia -81.0793 -0 0
rfoot 30.4135 6.37026 -0.76369
rtoes 2.33834 -0 0
lowerback 2.31181 0.425507 -0.885337
upperback -2.21574 0.426952 -2.22263
thorax -3.52951 0.197148 -1.694
lowerneck -6.3879 -5.40138 -0.229284
upperneck 2.03659 -7.40382 4.05859
head 1.90134 -3.62366 1.06373
lclavicle -5.39881e-14 5.81694e-15 -7.60073e-30
lhumerus -1.19109 -16.7434 15.428
lradius 67.7775 -0 0
lwrist 29.3777 0 0
lhand -26.2804 -6.70588 -0.28164
lfingers 7.12502 -0 0
lthumb 0.279145 23.4315 -0.236337
rclavicle -5.39881e-14 5.81694e-15 -7.60073e-30
rhumerus -4.87796 -10.6359 -17.6293
rradius 104.808 -0 0
rwrist -6.47307 0 0
rhand -34.907 -36.5534 0.22146
rfingers 7.12502 -0 0
rthumb -8.05447 -66.3725 0.212992
714
root 4.80483 18.9771 8.81938 -169.114 -80.7876 -171.959
lfemur -46.5099 2.83551 24.3953
ltibia -141.646 0 0
lfoot 8.72558 -3.89091 1.52603
ltoes 30.8208 -0 0
rfemur -5.84657 -2.04995 2.48175
rtibia -87.6498 -0 0
rfoot 30.7296 6.59316 -0.809615
rtoes 2.9957 -0 0
lowerback 2.29757 0.70616 -0.759776
upperback -2.23109 0.807568 -2.19786
thorax -3.5302 0.384589 -1.7499
lowerneck -6.3947 -5.46528 -0.250366
upperneck 1.91408 -7.48311 4.00146
head 1.86219 -3.668 1.04814
lclavicle -5.54287e-14 4.66964e-15 -7.80815e-30
lhumerus -3.39367 -16.6115 15.9898
lradius 67.106 -0 0
lwrist 29.1788 0 0
lhand -26.4136 -6.7193 -0.29438
lfingers 7.12502 -0 0
lthumb 0.150717 23.426 -0.24686
rclavicle -5.54287e-14 4.66964e-15 -7.80815e-30
rhumerus -2.81385 -10.4004 -18.3607
rradius 104.892 -0 0
rwrist -6.38294 0 0
rhand -34.8013 -36.2011 0.232678
rfingers 7.12502 -0 0
rthumb -7.95242 -66.0232 0.22372
715
root 4.75963 18.9224 9.16214 -168.312 -77.9576 -172.573
lfemur -46.2539 2.07553 24.1105
ltibia -134.289 0 0
lfoot 8.66834 -4.29721 1.60465
ltoes 30.3487 -0 0
rfemur -6.09926 -2.50764 1.92724
rtibia -94.2896 -0 0
rfoot 31.0232 6.81024 -0.852883
rtoes 3.67563 -0 0
lowerback 2.28143 0.990881 -0.635198
upperback -2.24614 1.1937 -2.17136
thorax -3.52897 0.574842 -1.80382
lowerneck -6.40442 -5.53184 -0.272427
upperneck 1.78822 -7.56596 3.94464
head 1.8226 -3.71409 1.03262
lclavicle -5.68082e-14 3.467e-15 -7.96061e-30
lhumerus -5.62254 -16.4997 16.6087
lradius 66.4207 -0 0
lwrist 28.9712 0 0
lhand -26.5332 -6.72512 -0.305689
lfingers 7.12502 -0 0
lthumb 0.0352954 23.4273 -0.256165
rclavicle -5.68082e-14 3.467e-15 -7.96061e-30
rhumerus -0.733897 -10.1149 -19.1424
rradius 104.942 -0 0
rwrist -6.29845 0 0
rhand -34.6883 -35.8503 0.242812
rfingers 7.12502 -0 0
rthumb -7.84336 -65.6754 0.2334
716
root 4.7149 18.8665 9.5015 -167.788 -75.128 -172.901
lfemur -45.9553 1.30276 23.7675
ltibia -126.877 0 0
lfoot 8.57272 -4.69955 1.67695
ltoes 29.8532 -0 0
rfemur -6.38916 -3.01377 1.37624
rtibia -100.985 -0 0
rfoot 31.2926 7.0208 -0.893054
rtoes 4.37736 -0 0
lowerback 2.26334 1.27914 -0.51196
upperback -2.26084 1.58461 -2.14311
thorax -3.52574 0.767556 -1.85556
lowerneck -6.41714 -5.60101 -0.295448
upperneck 1.65919 -7.65231 3.88831
head 1.78267 -3.76188 1.01721
lclavicle -5.81207e-14 2.20972e-15 -8.05673e-30
lhumerus -7.87401 -16.406 17.2875
lradius 65.7229 -0 0
lwrist 28.7553 0 0
lhand -26.6386 -6.72303 -0.315453
lfingers 7.12502 -0 0
lthumb -0.0663117 23.4356 -0.264158
rclavicle -5.81207e-14 2.20972e-15 -8.05673e-30
rhumerus 1.35591 -9.77587 -19.972
rradius 104.956 -0 0
rwrist -6.22003 0 0
rhand -34.5681 -35.5017 0.251759
rfingers 7.12502 -0 0
rthumb -7.7273 -65.3301 0.241934
717
root 4.6709 18.8098 9.83595 -167.41 -72.3061 -173.079
lfemur -45.612 0.519282 23.3641
ltibia -119.424 0 0
lfoot 8.43745 -5.09687 1.7421
ltoes 29.3345 -0 0
rfemur -6.71671 -3.56958 0.830961
rtibia -107.723 -0 0
rfoot 31.5363 7.22413 -0.929676
rtoes 5.10016 -0 0
lowerback 2.24323 1.57042 -0.390419
upperback -2.27511 1.97959 -2.11311
thorax -3.52041 0.962382 -1.90488
lowerneck -6.43296 -5.67273 -0.319407
upperneck 1.52715 -7.74211 3.83263
head 1.74247 -3.81134 1.00195
lclavicle -5.93603e-14 8.98522e-16 -8.09558e-30
lhumerus -10.1444 -16.3286 18.0286
lradius 65.0136 -0 0
lwrist 28.5311 0 0
lhand -26.7287 -6.71273 -0.323565
lfingers 7.12502 -0 0
lthumb -0.153297 23.4513 -0.270751
rclavicle -5.93603e-14 8.98522e-16 -8.09558e-30
rhumerus 3.44941 -9.38015 -20.8474
rradius 104.933 -0 0
rwrist -6.14813 0 0
rhand -34.4406 -35.1564 0.259421
rfingers 7.12502 -0 0
rthumb -7.60423 -64.9883 0.249228
718
root 4.62792 18.7528 10.164 -167.116 -69.4989 -173.166
lfemur -45.2217 -0.27261 22.8976
ltibia -111.946 0 0
lfoot 8.26129 -5.48808 1.7993
ltoes 28.7928 -0 0
rfemur -7.08245 -4.17626 0.293693
rtibia -114.49 -0 0
rfoot 31.7527 7.41953 -0.962289
rtoes 5.84325 -0 0
lowerback 2.22103 1.86418 -0.270935
upperback -2.2889 2.37791 -2.08135
thorax -3.51289 1.15897 -1.95157
lowerneck -6.45196 -5.74695 -0.344284
upperneck 1.39227 -7.83529 3.77777
head 1.70207 -3.86242 0.986881
lclavicle -6.05213e-14 -4.65891e-16 -8.07675e-30
lhumerus -12.4302 -16.2653 18.8348
lradius 64.2941 -0 0
lwrist 28.2987 0 0
lhand -26.8029 -6.6939 -0.329922
lfingers 7.12502 -0 0
lthumb -0.224852 23.4746 -0.27586
rclavicle -6.05213e-14 -4.65891e-16 -8.07675e-30
rhumerus 5.5403 -8.92474 -21.7662
rradius 104.87 -0 0
rwrist -6.08317 0 0
rhand -34.3059 -34.8153 0.265704
rfingers 7.12502 -0 0
rthumb -7.47415 -64.6509 0.255193
